<svg viewBox="0 0 20 20" version="1.1" xmlns:xlink="http://www.w3.org/1999/xlink" xmlns="http://www.w3.org/2000/svg" class="CRM_Icon__2IYcQ"><desc>Created with Lunacy</desc><g id="avatar"><path d="M9.96348 4.6983C9.84007 2.31208 8.62575 1.17226 7.62862 0.63478C6.88324 0.231672 6.01445 0.0185337 5.05681 0L4.9729 0C4.44471 0 3.40316 0.0787683 2.40109 0.616246C1.38915 1.15372 0.160018 2.29818 0.0366104 4.6983C-0.00287987 5.09214 -0.269439 8.29384 1.52737 10.1936C2.37147 11.0924 3.51176 11.5558 4.9186 11.5789L5.07162 11.5789C6.47846 11.5558 7.61874 11.0924 8.46779 10.1936C10.2695 8.29384 10.003 5.09214 9.96348 4.6983ZM7.13005 9.07689C6.61668 9.61901 5.9256 9.88311 5.01732 9.89238L4.9729 9.89238C4.05968 9.88311 3.37354 9.61901 2.8651 9.07689C1.54711 7.68686 1.8038 4.98557 1.81367 4.86047L1.81861 4.84657L1.81861 4.84194C1.81861 4.83267 1.82355 4.81877 1.82355 4.80024C1.88278 3.57701 2.31224 2.69666 3.10204 2.19161C3.77338 1.7607 4.55825 1.69584 4.96796 1.69584L5.01732 1.69584C6.38467 1.72364 8.03833 2.28892 8.16667 4.80024C8.16667 4.81877 8.16667 4.84657 8.17654 4.879C8.20123 5.11531 8.41349 7.71466 7.13005 9.07689Z" transform="translate(5.555555 0)" id="Shape" fill="currentColor" stroke="none"/><path d="M19.7551 6.34891C19.688 6.48498 19.5591 6.60161 19.394 6.68325L19.3889 6.68714C19.0175 6.86597 15.5929 8.42105 10.0123 8.42105C7.61404 8.42105 5.32922 8.14114 3.22491 7.5852C1.61574 7.16144 0.702839 6.72213 0.630633 6.68325C0.465589 6.60549 0.336649 6.48886 0.264442 6.34891C-0.0089115 5.82407 -0.00375389 4.84825 0.00140372 4.65387L0.00140372 4.63054L0.00140372 4.61499C0.00140372 4.59944 0.00140372 4.58 0.00140372 4.55279L0.00140372 4.54112C0.0168766 4.17568 0.0426646 3.56531 0.331491 2.9666C0.697682 2.21627 1.37333 1.71087 2.34296 1.45817C2.36875 1.4504 2.38938 1.44651 2.41517 1.44262C4.46274 1.04996 6.16475 0.167453 6.22664 0.132464L6.2318 0.128576C6.43811 0.0197206 6.68567 -0.0230441 6.93324 0.0119452C7.1808 0.0430469 7.39742 0.148015 7.54183 0.303523C7.84098 0.622315 7.73782 1.06551 7.3149 1.291L7.28911 1.30655C6.79914 1.55536 5.04555 2.39511 2.92061 2.80721C2.10571 3.03269 1.91488 3.65473 1.87878 4.58777C1.87878 4.60721 1.87878 4.62665 1.87362 4.64609C1.87362 4.65775 1.87362 4.66553 1.87362 4.6733L1.87362 4.67719C1.8633 4.94933 1.88909 5.35365 1.94582 5.62579C2.88967 6.01067 5.74698 7.00593 10.002 7.00593C14.2777 7.00593 17.1195 6.01067 18.0531 5.62968C18.1046 5.3692 18.1253 4.98043 18.1253 4.68886C18.1201 4.65387 18.1201 4.62276 18.1201 4.58777C18.084 3.65861 17.8932 3.03269 17.0783 2.80721C14.6645 2.33679 12.7613 1.33377 12.684 1.291C12.4777 1.18214 12.3436 1.01886 12.2972 0.832251C12.2559 0.645641 12.3075 0.459031 12.4519 0.303523C12.5963 0.148015 12.8129 0.0469346 13.0605 0.0119452C13.308 -0.0191564 13.5556 0.0197206 13.7619 0.128576L13.7671 0.132464C13.8341 0.167453 15.5413 1.04996 17.5837 1.44262L17.6147 1.4504C17.625 1.45428 17.6404 1.45428 17.6508 1.45817C18.6204 1.70698 19.296 2.21627 19.6622 2.96271C19.9562 3.56142 19.9768 4.17568 19.9923 4.54112L19.9923 4.55279C19.9923 4.56445 19.9923 4.57611 19.9923 4.58777C19.9923 4.60721 19.9975 4.62665 19.9975 4.6422L19.9975 4.64998C20.0026 4.78605 20.0233 5.81629 19.7551 6.34891Z" transform="translate(0 11.57895)" id="Path" fill="currentColor" stroke="none"/></g></svg>