<svg viewBox="0 0 34 23" version="1.1" xmlns:xlink="http://www.w3.org/1999/xlink" xmlns="http://www.w3.org/2000/svg" class="YourCenter_YourCenter_icon__387f6"><g id="noun_shopping-mall_1568366-1" transform="translate(0.75 0.75)"><path d="M0 1.13771C2.29127 0.349415 4.70927 -0.035025 7.13997 0.00250503C9.57067 -0.035025 11.9887 0.349415 14.28 1.13771" transform="translate(8.96143 6.407715)" id="Path" fill="none" fill-rule="evenodd" stroke="#000000" stroke-width="1.5" stroke-linecap="round" stroke-linejoin="round"/><path d="M0 1.1377C2.29127 0.349401 4.70927 -0.0349986 7.13997 0.00250143C9.57067 -0.0349986 11.9887 0.349401 14.28 1.1377" transform="translate(8.96143 9.707499)" id="Path" fill="none" fill-rule="evenodd" stroke="#000000" stroke-width="1.5" stroke-linecap="round" stroke-linejoin="round"/><path d="M0 13.2792L0 2.31C0 1.0329 3.19597 0 7.13997 0C11.084 0 14.28 1.0329 14.28 2.31L14.28 13.2429" transform="translate(8.96143 0.80029)" id="Path" fill="none" fill-rule="evenodd" stroke="#000000" stroke-width="1.5" stroke-linecap="round" stroke-linejoin="round"/><path d="M0 0.698075C2.9216 0.169875 5.9185 0.169875 8.84 0.698075" transform="translate(11.6821 12.707825)" id="Path" fill="none" fill-rule="evenodd" stroke="#000000" stroke-width="1.5" stroke-linecap="round" stroke-linejoin="round"/><path d="M0.5 0L0.5 12.54" transform="translate(11.1821 7.06982)" id="Path" fill="none" fill-rule="evenodd" stroke="#000000" stroke-width="1.5" stroke-linecap="round" stroke-linejoin="round"/><path d="M0.5 0L0.5 6.26997" transform="translate(14.1299 6.74023)" id="Path" fill="none" fill-rule="evenodd" stroke="#000000" stroke-width="1.5" stroke-linecap="round" stroke-linejoin="round"/><path d="M0.5 0L0.5 6.26997" transform="translate(17.0742 6.74023)" id="Path" fill="none" fill-rule="evenodd" stroke="#000000" stroke-width="1.5" stroke-linecap="round" stroke-linejoin="round"/><path d="M0.55735 12.9303L0.44265 0" transform="translate(20.07885 7.06982)" id="Path" fill="none" fill-rule="evenodd" stroke="#000000" stroke-width="1.5" stroke-linecap="round" stroke-linejoin="round"/><path d="M4.42004 1.32L0 0L0 13.53" transform="translate(4.60986 6.08057)" id="Path" fill="none" fill-rule="evenodd" stroke="#000000" stroke-width="1.5" stroke-linecap="round" stroke-linejoin="round"/><path d="M3.06001 0L0 0L0 11.55" transform="translate(1.5498 8.06006)" id="Path" fill="none" fill-rule="evenodd" stroke="#000000" stroke-width="1.5" stroke-linecap="round" stroke-linejoin="round"/><path d="M8.8864 0.53005L0 0.46995" transform="translate(11.75 19.46995)" id="Path" fill="none" fill-rule="evenodd" stroke="#000000" stroke-width="1.5" stroke-linecap="round" stroke-linejoin="round"/><path d="M7.82 0.5L0 0.5" transform="translate(0.18994 19.4399)" id="Path" fill="none" fill-rule="evenodd" stroke="#000000" stroke-width="1.5" stroke-linecap="round" stroke-linejoin="round"/><path d="M3.74005 6.6L0 7.59L0 0.99L3.74005 0" transform="translate(8.01025 13.3403)" id="Path" fill="none" fill-rule="evenodd" stroke="#000000" stroke-width="1.5" stroke-linecap="round" stroke-linejoin="round"/><path d="M0 1.32L4.42 0L4.42 13.53" transform="translate(22.9701 6.08057)" id="Path" fill="none" fill-rule="evenodd" stroke="#000000" stroke-width="1.5" stroke-linecap="round" stroke-linejoin="round"/><path d="M0 0L3.06 0L3.06 11.55" transform="translate(27.3902 8.06006)" id="Path" fill="none" fill-rule="evenodd" stroke="#000000" stroke-width="1.5" stroke-linecap="round" stroke-linejoin="round"/><path d="M0 0.5L7.82 0.5" transform="translate(23.9901 19.4399)" id="Path" fill="none" fill-rule="evenodd" stroke="#000000" stroke-width="1.5" stroke-linecap="round" stroke-linejoin="round"/><path d="M0 6.6L3.74 7.59L3.74 0.99L0 0" transform="translate(20.2497 13.3403)" id="Path" fill="none" fill-rule="evenodd" stroke="#000000" stroke-width="1.5" stroke-linecap="round" stroke-linejoin="round"/></g></svg>