<svg viewBox="0 0 13 9" version="1.1" xmlns:xlink="http://www.w3.org/1999/xlink" xmlns="http://www.w3.org/2000/svg"><path d="M2.60055 1.13293C2.93206 1.5619 3.40397 1.87971 3.94582 2.0389C3.61031 2.4641 3.43073 2.97828 3.43359 3.50556C2.89614 3.33951 2.31531 3.33951 1.77786 3.50556C1.78123 2.9782 1.60161 2.46388 1.26563 2.0389C1.80727 1.87934 2.27907 1.56161 2.6109 1.13293M2.61087 0L2.27662 0.531844C1.98108 1.08817 1.40835 1.47244 0.747144 1.55803L0 1.65901L0.540179 2.14854C1.01631 2.57908 1.23349 3.20007 1.12072 3.80851L0.993433 4.5L1.6609 4.17301C2.24881 3.88572 2.95119 3.88572 3.5391 4.17301L4.20657 4.5L4.07928 3.80851C3.96706 3.20011 4.18416 2.57935 4.65982 2.14854L5.2 1.65901L4.45389 1.55803C3.79614 1.46976 3.22747 1.08587 2.93373 0.531844L2.60052 5.46688e-15L2.61087 0Z" transform="translate(3.9003906 1.9285736)" id="Shape" fill="currentColor" stroke="none"/><path d="M11.7253 0.616653C12.1103 0.616653 12.4225 0.950088 12.423 1.36177L12.423 7.63721C12.4225 8.04906 12.1104 8.38279 11.7253 8.38335L1.27288 8.38335C0.887941 8.38279 0.576172 8.04889 0.576172 7.63721L0.576172 1.36177C0.576701 0.950489 0.888316 0.61722 1.27288 0.616653L11.7253 0.616653M11.7258 3.8839e-07L1.27329 3.8839e-07C0.570069 3.8839e-07 0 0.609684 0 1.36177L0 7.6372C-2.00017e-07 8.38945 0.569914 8.99943 1.27329 9L11.7258 9C12.4295 9 13 8.38986 13 7.6372L13 1.36177C13 1.00043 12.8657 0.6539 12.6267 0.398489C12.3877 0.143079 12.0636 -0.000272322 11.7258 3.8839e-07L11.7258 3.8839e-07Z" id="Shape" fill="currentColor" stroke="none"/><path d="M3.25 0.642857L0 0.642857L0.579323 0L3.25 0L3.25 0.642857L3.25 0.642857Z" transform="translate(9.75 3.8571472)" id="Path" fill="currentColor" stroke="none"/><path d="M0 1.28571L0 0.118336L0.0498333 0.0844193C0.215954 -0.0281398 0.432962 -0.0281398 0.599083 0.0844193L0.65 0.118336L0.65 1.28353L0 1.28571Z" transform="translate(6.1757812 7.0714264)" id="Path" fill="currentColor" stroke="none"/><path d="M0.65 0L0.65 1.25896C0.64914 1.27101 0.641371 1.28122 0.630512 1.28458C0.619653 1.28793 0.607988 1.28372 0.60125 1.27402L0.442 1.02037C0.419355 0.973283 0.373985 0.94368 0.324458 0.94368C0.274932 0.94368 0.229562 0.973283 0.206917 1.02037L0.0476667 1.27286C0.0413572 1.28303 0.0295797 1.28761 0.0186314 1.28415C0.00768319 1.2807 0.000125722 1.27001 0 1.2578L0 0L0.65 0Z" transform="translate(6.1757812 0)" id="Path" fill="currentColor" stroke="none"/><path d="M0 0.642857L3.25 0.642857L2.67068 0L0 0L0 0.642857L0 0.642857Z" transform="translate(0 3.8571472)" id="Path" fill="currentColor" stroke="none"/></svg>